<?xml version="1.0" encoding="UTF-8" standalone="no"?>
<svg
   viewBox="0 0 300 300"
   version="1.1"
   id="svg14"
   sodipodi:docname="distanamo-logo.svg"
   inkscape:version="1.2.2 (b0a8486541, 2022-12-01)"
   xmlns:inkscape="http://www.inkscape.org/namespaces/inkscape"
   xmlns:sodipodi="http://sodipodi.sourceforge.net/DTD/sodipodi-0.dtd"
   xmlns="http://www.w3.org/2000/svg"
   xmlns:svg="http://www.w3.org/2000/svg">
  <defs
     id="defs18" />
  <sodipodi:namedview
     id="namedview16"
     pagecolor="#ffffff"
     bordercolor="#000000"
     borderopacity="0.25"
     inkscape:showpageshadow="2"
     inkscape:pageopacity="0.0"
     inkscape:pagecheckerboard="0"
     inkscape:deskcolor="#d1d1d1"
     showgrid="false"
     inkscape:zoom="1.439306"
     inkscape:cx="-89.973918"
     inkscape:cy="248.3836"
     inkscape:window-width="1920"
     inkscape:window-height="1018"
     inkscape:window-x="0"
     inkscape:window-y="28"
     inkscape:window-maximized="1"
     inkscape:current-layer="svg14" />
  <polygon
     points="150,10 280,75 280,225 150,290 20,225 20,75"
     fill="#ffffff"
     stroke="#000000"
     stroke-width="5"
     id="polygon2"
     style="fill:#000000;fill-opacity:1;stroke:#f30000;stroke-opacity:1" />
  <g
     id="g2646"
     transform="matrix(1.0723294,0,0,1.0723294,-10.84941,0.341327)">
    <path
       d="m 191.45684,99.532085 c 0.35592,16.745035 0.71182,35.028055 -26.58893,43.888565 -13.6504,4.43024 -28.95396,3.36269 -24.81906,-17.64992 -0.17796,-8.37251 6.25716,-26.240576 23.75132,-29.548306 9.00153,-1.701975 27.47873,-5.062847 27.65667,3.309661 z m -17.25141,52.098405 c 0.35592,16.74503 -1.04128,38.57641 -28.34205,47.43691 -13.65038,4.43026 -24.68107,-3.54698 -25.03699,-20.292 4.31287,-12.6401 25.14498,-28.40932 53.37904,-27.14491 z m -47.66168,49.26644 c 0.17795,8.37251 3.46541,26.8995 -10.18498,31.32974 -13.65037,4.43027 -18.889668,-2.56273 -19.745719,-16.29734 6.536669,-14.63922 20.771119,-14.86974 29.930699,-15.0324 z"
       fill="#7dbce8"
       stroke="#005c99"
       stroke-width="3.71607"
       id="path4"
       sodipodi:nodetypes="sscsscscccscc" />
    <circle
       cx="150"
       cy="162"
       fill="none"
       stroke="#005c99"
       stroke-width="2.39346"
       id="circle6"
       style="stroke:#ff0060;stroke-opacity:1"
       r="11.967306" />
    <circle
       cx="150"
       cy="162"
       fill="none"
       stroke="#005c99"
       stroke-width="0.402083"
       id="circle6-3"
       style="fill:#ff0060;fill-opacity:1;stroke:#ff0060;stroke-opacity:1"
       r="2.0104187" />
    <circle
       cx="150"
       cy="162"
       fill="none"
       stroke="#005c99"
       stroke-width="2.39346"
       id="circle8"
       style="stroke:#ff0060;stroke-opacity:1"
       r="35.90192" />
    <circle
       cx="150"
       cy="162"
       fill="none"
       stroke="#005c99"
       stroke-width="2.39346"
       id="circle10"
       style="stroke:#ff0060;stroke-opacity:1"
       r="59.836533" />
  </g>
  <text
     x="150"
     y="84"
     font-family="Arial, sans-serif"
     font-size="18px"
     text-anchor="middle"
     fill="#000000"
     id="text12"
     style="font-size:29.3333px;fill:#ffff00;fill-opacity:1"><tspan
       style="font-style:normal;font-variant:normal;font-weight:normal;font-stretch:normal;font-family:'Noto Sans Imperial Aramaic';-inkscape-font-specification:'Noto Sans Imperial Aramaic';fill:#ffff00;fill-opacity:1"
       id="tspan2614">Distanamo</tspan></text>
</svg>
